<svg width="124" height="142" viewBox="0 0 124 142" fill="none" xmlns="http://www.w3.org/2000/svg">
<path d="M1.48061 141.332C1.20789 141.332 0.957888 141.127 0.935161 140.832C0.912434 140.536 1.13971 140.264 1.43516 140.241C1.91243 140.196 2.36698 140.15 2.82152 140.059C3.11698 140.014 3.38971 140.196 3.45789 140.491C3.50334 140.786 3.32152 141.059 3.00334 141.127C2.50334 141.218 2.02607 141.286 1.52607 141.332H1.48061ZM5.70789 140.423C5.48061 140.423 5.27607 140.286 5.18516 140.059C5.09425 139.764 5.25334 139.468 5.52607 139.377C6.38971 139.082 7.25334 138.718 8.09425 138.309C8.36698 138.173 8.68516 138.286 8.82153 138.559C8.95789 138.832 8.84425 139.15 8.57152 139.286C7.68516 139.741 6.77607 140.105 5.86698 140.423H5.70789ZM10.8215 137.877C10.6397 137.877 10.4806 137.786 10.367 137.627C10.2895 137.507 10.2627 137.36 10.2925 137.22C10.3223 137.079 10.4062 136.956 10.5261 136.877C11.2761 136.377 12.0488 135.809 12.7533 135.196C12.9806 135.014 13.3215 135.036 13.5261 135.264C13.7306 135.491 13.6852 135.832 13.4579 136.036C12.7079 136.673 11.9124 137.264 11.117 137.809C11.0261 137.855 10.9352 137.877 10.8215 137.877ZM15.1852 134.173C15.0488 134.173 14.9124 134.127 14.7988 134.014C14.5715 133.809 14.5715 133.468 14.7761 133.241C15.1397 132.855 15.4806 132.468 15.8215 132.059C16.0943 131.741 16.3443 131.423 16.5943 131.105C16.7761 130.855 17.117 130.832 17.367 131.014C17.5943 131.196 17.6397 131.536 17.4579 131.786C17.2079 132.127 16.9352 132.446 16.6624 132.786L15.5715 134.014C15.4806 134.127 15.3443 134.173 15.1852 134.173ZM18.7079 129.673C18.6102 129.672 18.5145 129.645 18.4308 129.595C18.3471 129.545 18.2784 129.473 18.232 129.387C18.1856 129.301 18.163 129.204 18.1668 129.106C18.1705 129.009 18.2004 128.914 18.2533 128.832C18.7533 128.059 19.2306 127.241 19.7079 126.4C19.8443 126.127 20.1852 126.036 20.4579 126.196C20.7306 126.332 20.8215 126.673 20.6624 126.946C20.1852 127.809 19.6852 128.65 19.1624 129.446C19.0715 129.582 18.8897 129.673 18.7079 129.673ZM21.8897 124.991H21.3443C21.0488 124.991 20.7988 124.741 20.8215 124.423C20.8215 124.286 20.867 124.173 20.9579 124.082C20.9579 124.014 20.9806 123.946 21.0033 123.855C21.4124 122.991 21.7761 122.127 22.1397 121.264C22.2533 120.991 22.5715 120.855 22.8443 120.968C23.117 121.082 23.2533 121.4 23.1397 121.673C22.8443 122.423 22.5033 123.15 22.1852 123.877H22.2761C22.8897 123.855 23.5261 123.809 24.1397 123.718C24.2814 123.697 24.4256 123.733 24.5407 123.818C24.6557 123.904 24.7322 124.031 24.7533 124.173C24.7744 124.314 24.7384 124.459 24.6532 124.574C24.5679 124.689 24.4404 124.765 24.2988 124.786C23.6397 124.877 22.9579 124.946 22.2988 124.968L21.8897 124.991ZM18.5261 124.627C18.4806 124.627 18.4579 124.627 18.4124 124.605C17.4579 124.4 16.5033 124.105 15.5943 123.718C15.3215 123.605 15.1852 123.286 15.2988 123.014C15.4124 122.741 15.7306 122.605 16.0033 122.718C16.867 123.059 17.7533 123.355 18.6397 123.536C18.9352 123.605 19.117 123.9 19.0488 124.196C19.0033 124.446 18.7761 124.627 18.5261 124.627ZM27.0033 124.196C26.7761 124.196 26.5488 124.036 26.4806 123.809C26.3897 123.514 26.5488 123.218 26.8443 123.127C27.7079 122.855 28.5943 122.514 29.4352 122.105C29.7079 121.968 30.0261 122.105 30.1624 122.377C30.2988 122.65 30.1624 122.968 29.9124 123.105C29.0033 123.536 28.0943 123.877 27.1624 124.173C27.117 124.173 27.0715 124.196 27.0033 124.196ZM13.2306 122.468C13.125 122.47 13.0216 122.438 12.9352 122.377C12.0943 121.855 11.2988 121.264 10.5715 120.605C10.3443 120.4 10.3215 120.059 10.5261 119.832C10.7306 119.605 11.0715 119.582 11.2988 119.786C11.9806 120.4 12.7306 120.946 13.5261 121.446C13.629 121.509 13.7083 121.604 13.7519 121.717C13.7955 121.829 13.801 121.953 13.7674 122.069C13.7339 122.185 13.6632 122.287 13.5663 122.359C13.4693 122.431 13.3514 122.47 13.2306 122.468ZM32.1852 121.764C32.0942 121.765 32.0044 121.743 31.9247 121.699C31.845 121.655 31.7781 121.591 31.7306 121.514C31.6914 121.453 31.665 121.385 31.6529 121.314C31.6408 121.243 31.6433 121.17 31.6604 121.1C31.6774 121.029 31.7085 120.963 31.7518 120.906C31.7952 120.848 31.8498 120.8 31.9124 120.764C32.4124 120.446 32.8897 120.127 33.367 119.764C33.6397 119.559 33.9352 119.355 34.2079 119.127C34.4352 118.946 34.7761 118.991 34.9806 119.218C35.1624 119.446 35.1397 119.786 34.8897 119.991C34.617 120.218 34.3215 120.446 34.0261 120.65C33.5261 121.014 33.0261 121.355 32.5033 121.696C32.3897 121.741 32.2988 121.764 32.1852 121.764ZM23.6852 119.355C23.617 119.355 23.5488 119.355 23.5033 119.332C23.2306 119.218 23.0715 118.923 23.1852 118.627C23.3897 118.059 23.5943 117.491 23.7761 116.923C23.8897 116.605 24.0033 116.264 24.117 115.923C24.2079 115.627 24.5261 115.491 24.7988 115.582C25.0943 115.673 25.2306 115.991 25.1397 116.264C25.0261 116.605 24.9124 116.923 24.7988 117.264C24.5943 117.832 24.3897 118.423 24.1852 118.991C24.117 119.218 23.8897 119.355 23.6852 119.355ZM8.98062 118.673C8.82153 118.673 8.66243 118.605 8.5488 118.468C8.13971 117.968 7.77607 117.423 7.43516 116.855C7.25334 116.559 7.09425 116.264 6.93516 115.968C6.87181 115.841 6.8601 115.694 6.90246 115.559C6.94482 115.423 7.03798 115.309 7.16243 115.241C7.43516 115.105 7.75334 115.218 7.88971 115.468C8.30864 116.285 8.80323 117.062 9.36698 117.786C9.5488 118.014 9.50334 118.377 9.27607 118.559C9.19552 118.633 9.08993 118.674 8.98062 118.673ZM36.6852 118.218C36.5488 118.218 36.3897 118.173 36.2988 118.059C36.0943 117.832 36.0943 117.491 36.3215 117.286C36.9806 116.673 37.6397 115.968 38.2761 115.264C38.4806 115.036 38.8215 115.014 39.0488 115.218C39.2761 115.423 39.2988 115.764 39.0943 115.991C38.4352 116.741 37.7533 117.446 37.0715 118.082C36.9579 118.173 36.8215 118.218 36.6852 118.218ZM40.5261 113.968C40.4036 113.965 40.2849 113.926 40.1852 113.855C40.0736 113.762 40.0019 113.63 39.985 113.486C39.9681 113.343 40.0072 113.198 40.0943 113.082C40.6397 112.4 41.1852 111.696 41.7079 110.968L41.8215 110.809C42.0033 110.559 42.3443 110.514 42.5943 110.696C42.8443 110.877 42.8897 111.218 42.7079 111.468L42.5943 111.627C42.0715 112.355 41.5033 113.059 40.9579 113.764C40.8443 113.9 40.6852 113.968 40.5261 113.968ZM25.4352 113.9C25.3897 113.9 25.3443 113.9 25.2988 113.877C25.0033 113.809 24.8443 113.514 24.9124 113.218C25.1624 112.241 25.367 111.355 25.5261 110.468C25.5715 110.173 25.867 109.968 26.1624 110.036C26.4579 110.082 26.6624 110.377 26.5943 110.673C26.4352 111.582 26.2306 112.514 25.9579 113.514C25.8897 113.741 25.6852 113.9 25.4352 113.9ZM6.34425 113.605C6.11698 113.605 5.88971 113.446 5.82152 113.218C5.52607 112.286 5.32153 111.309 5.20789 110.332C5.18516 110.036 5.38971 109.764 5.68516 109.718C5.98062 109.696 6.25334 109.9 6.2988 110.196C6.41243 111.127 6.61698 112.036 6.86698 112.9C6.95789 113.196 6.7988 113.491 6.50334 113.582C6.45789 113.605 6.41243 113.605 6.34425 113.605ZM43.9352 109.355C43.8215 109.355 43.7306 109.332 43.6397 109.264C43.5797 109.225 43.5283 109.174 43.4887 109.115C43.449 109.055 43.422 108.989 43.4092 108.918C43.3964 108.848 43.3982 108.776 43.4144 108.706C43.4306 108.637 43.4608 108.571 43.5033 108.514C44.0261 107.718 44.5488 106.946 45.0715 106.127C45.2306 105.877 45.5715 105.786 45.8215 105.968C46.0715 106.15 46.1624 106.468 46.0033 106.718C45.4806 107.536 44.9579 108.332 44.4124 109.127C44.2761 109.264 44.117 109.355 43.9352 109.355ZM26.3897 108.241H26.367C26.2243 108.23 26.0912 108.165 25.9943 108.059C25.8974 107.954 25.8438 107.816 25.8443 107.673C25.867 107.355 25.867 107.014 25.867 106.696C25.867 106.082 25.8443 105.468 25.7761 104.9C25.7533 104.605 25.9579 104.332 26.2533 104.309C26.5488 104.286 26.8215 104.491 26.8443 104.786C26.9124 105.4 26.9352 106.036 26.9352 106.696C26.9352 107.036 26.9352 107.377 26.9124 107.741C26.9124 108.014 26.6852 108.241 26.3897 108.241ZM5.63971 107.946H5.61698C5.4743 107.934 5.3412 107.869 5.24429 107.764C5.14738 107.659 5.09379 107.52 5.09425 107.377C5.13971 106.377 5.27607 105.4 5.48062 104.446C5.49703 104.375 5.5271 104.309 5.56911 104.251C5.61111 104.192 5.66423 104.142 5.72543 104.104C5.78664 104.066 5.85472 104.041 5.9258 104.029C5.99688 104.018 6.06957 104.02 6.13971 104.036C6.20984 104.053 6.27606 104.083 6.33458 104.125C6.3931 104.167 6.44277 104.22 6.48075 104.281C6.51874 104.342 6.5443 104.411 6.55598 104.482C6.56765 104.553 6.56521 104.625 6.5488 104.696C6.34425 105.582 6.23061 106.514 6.18516 107.446C6.18516 107.718 5.93516 107.946 5.63971 107.946ZM46.9806 104.514C46.8897 104.514 46.7988 104.491 46.7079 104.446C46.5861 104.369 46.4975 104.249 46.4597 104.11C46.4218 103.971 46.4374 103.823 46.5033 103.696C46.9806 102.877 47.4352 102.036 47.8897 101.218C48.0261 100.946 48.367 100.855 48.617 100.991C48.8897 101.127 48.9806 101.468 48.8443 101.718C48.3897 102.559 47.9124 103.4 47.4352 104.241C47.367 104.4 47.1852 104.514 46.9806 104.514ZM25.7533 102.582C25.5261 102.582 25.2988 102.446 25.2306 102.196C24.9579 101.332 24.5715 100.491 24.0943 99.7183C23.9352 99.4683 24.0261 99.1274 24.2761 98.9683C24.5261 98.8092 24.867 98.9001 25.0261 99.1501C25.5488 100.014 25.9579 100.923 26.2761 101.877C26.367 102.173 26.2079 102.468 25.9352 102.559C25.8443 102.582 25.7988 102.582 25.7533 102.582ZM6.86698 102.377C6.7988 102.377 6.73061 102.355 6.66243 102.332C6.53073 102.277 6.426 102.172 6.37076 102.04C6.31551 101.908 6.31415 101.76 6.36698 101.627C6.74808 100.711 7.22014 99.8356 7.77607 99.0137C7.93516 98.7637 8.27607 98.6955 8.52607 98.8546C8.77607 99.0137 8.84425 99.3546 8.68516 99.6046C8.16748 100.366 7.73317 101.182 7.38971 102.036C7.2988 102.241 7.09425 102.377 6.86698 102.377ZM49.7079 99.4455C49.617 99.4455 49.5488 99.4228 49.4579 99.4001C49.3932 99.3693 49.3354 99.3259 49.2877 99.2725C49.24 99.219 49.2035 99.1566 49.1802 99.0889C49.1569 99.0212 49.1474 98.9495 49.1521 98.8781C49.1569 98.8066 49.1759 98.7368 49.2079 98.6728C49.617 97.8319 50.0261 96.9683 50.4124 96.1046C50.5261 95.8319 50.867 95.7183 51.1397 95.8319C51.4124 95.9455 51.5261 96.2864 51.4124 96.5592C51.0261 97.4455 50.617 98.3092 50.1852 99.1728C50.0943 99.3319 49.9124 99.4455 49.7079 99.4455ZM22.7988 97.7183C22.6624 97.7183 22.5261 97.6728 22.4124 97.5592C21.7755 96.9156 21.0573 96.3578 20.2761 95.9001C20.1543 95.8234 20.0657 95.7038 20.0279 95.5649C19.99 95.426 20.0056 95.278 20.0715 95.1501C20.2306 94.8774 20.5488 94.8092 20.8215 94.9455C21.6624 95.4228 22.4579 96.0592 23.1852 96.7864C23.3897 96.991 23.3897 97.3546 23.1852 97.5592C23.0715 97.6728 22.9352 97.7183 22.7988 97.7183ZM10.0488 97.6501C9.91243 97.6501 9.75334 97.6046 9.66243 97.491C9.45789 97.2637 9.45789 96.9228 9.68516 96.7183C10.4352 95.991 11.2533 95.4001 12.0943 94.9228C12.367 94.7864 12.6852 94.8774 12.8443 95.1274C12.9806 95.4001 12.8897 95.7183 12.6397 95.8774C11.867 96.3092 11.1397 96.8546 10.4579 97.5137C10.3215 97.5819 10.1852 97.6501 10.0488 97.6501ZM17.867 94.9455H17.7533C17.3215 94.8546 16.9124 94.8546 16.4124 94.8319C16.2761 94.8319 16.117 94.8319 15.9806 94.8546C15.6852 94.8774 15.3897 94.9001 15.0943 94.9683C14.7988 95.0137 14.5033 94.8319 14.4579 94.5364C14.4124 94.241 14.5943 93.9455 14.8897 93.9001C15.2306 93.8319 15.5488 93.8092 15.9124 93.7864C16.0943 93.7864 16.2761 93.7864 16.4352 93.7637C16.9352 93.7637 17.4579 93.8092 17.9579 93.9001C18.2533 93.9455 18.4579 94.241 18.3897 94.5364C18.367 94.7637 18.117 94.9455 17.867 94.9455ZM52.0488 94.2183C51.9806 94.2183 51.9124 94.1955 51.8443 94.1728C51.7126 94.1175 51.6078 94.0126 51.5526 93.8809C51.4973 93.7492 51.496 93.601 51.5488 93.4683C51.9124 92.5819 52.2533 91.6955 52.5715 90.8092C52.6852 90.5364 52.9806 90.3774 53.2761 90.491C53.5488 90.6046 53.7079 90.9001 53.5943 91.1955C53.2533 92.1046 52.9124 92.991 52.5488 93.8774C52.4806 94.1046 52.2761 94.2183 52.0488 94.2183ZM54.0488 88.8546C54.0033 88.8546 53.9352 88.8546 53.867 88.8319C53.7994 88.8101 53.7369 88.775 53.6831 88.7288C53.6293 88.6825 53.5852 88.626 53.5535 88.5625C53.5217 88.499 53.503 88.4299 53.4982 88.3591C53.4935 88.2882 53.503 88.2172 53.5261 88.1501C53.8215 87.241 54.0943 86.3319 54.367 85.4228C54.4579 85.1274 54.7533 84.9683 55.0488 85.0592C55.3443 85.1501 55.5033 85.4455 55.4124 85.741C55.1397 86.6728 54.867 87.5819 54.5488 88.491C54.4806 88.6955 54.2761 88.8546 54.0488 88.8546ZM55.6624 83.241C55.617 83.241 55.5715 83.241 55.5261 83.2183C55.4558 83.2032 55.3895 83.1736 55.3313 83.1315C55.2731 83.0894 55.2243 83.0357 55.1879 82.9737C55.1516 82.9117 55.1285 82.8429 55.1202 82.7715C55.1119 82.7001 55.1186 82.6278 55.1397 82.5592L55.4806 81.1501C55.497 81.0799 55.5271 81.0137 55.5691 80.9552C55.6111 80.8967 55.6642 80.847 55.7254 80.809C55.7866 80.771 55.8547 80.7455 55.9258 80.7338C55.9969 80.7221 56.0696 80.7246 56.1397 80.741C56.2099 80.7574 56.2761 80.7875 56.3346 80.8295C56.3931 80.8715 56.4428 80.9246 56.4808 80.9858C56.5187 81.047 56.5443 81.1151 56.556 81.1862C56.5677 81.2573 56.5652 81.3299 56.5488 81.4001L56.2079 82.8319C56.1397 83.0819 55.9124 83.241 55.6624 83.241Z" fill="white"/>
<path d="M54.8672 85.1889L72.5945 68.5298L61.1399 63.7344L54.8672 85.1889Z" fill="#46C4E2"/>
<path d="M54.8648 85.7465C54.7592 85.7481 54.6558 85.7163 54.5694 85.6555C54.4708 85.5911 54.3955 85.4967 54.3546 85.3862C54.3136 85.2757 54.3093 85.155 54.3421 85.0419L60.6148 63.5874C60.6603 63.4283 60.7739 63.3146 60.9103 63.2464C61.0466 63.1783 61.2057 63.1783 61.3648 63.2464L72.8194 68.0419C72.9785 68.1101 73.1148 68.2692 73.1376 68.451C73.1603 68.6328 73.1148 68.8146 72.9785 68.951L71.3421 70.4737C71.1148 70.6783 70.7739 70.6783 70.5694 70.451C70.3648 70.2237 70.3648 69.8828 70.5921 69.6783L71.6148 68.7237L61.5012 64.4737L55.9557 83.4283L63.0466 76.7692C63.2739 76.5646 63.6148 76.5646 63.8194 76.7919C64.0239 77.0192 64.0239 77.3601 63.7966 77.5646L55.2512 85.5874C55.1376 85.701 55.0012 85.7465 54.8648 85.7465Z" fill="white"/>
<path d="M122.525 1.44744L120.411 12.1747L117.411 27.2429L106.684 81.2202C106.388 82.7429 104.775 83.5156 103.388 82.8565C95.0247 78.7429 86.7747 74.8338 78.7066 71.2429C72.3202 68.3565 66.0247 65.6974 59.8429 63.1974C56.2747 61.7429 52.7293 60.402 49.2066 59.1065C39.6838 55.5384 30.4566 52.5384 21.5702 50.152C21.3571 50.0972 21.1662 49.9779 21.0236 49.8103C20.8811 49.6428 20.7938 49.4352 20.7739 49.2161C20.754 48.997 20.8024 48.7771 20.9124 48.5866C21.0224 48.3961 21.1887 48.2443 21.3884 48.152L102.32 10.4702L122.229 1.22017C122.297 1.19744 122.343 1.19744 122.388 1.22017C122.411 1.22017 122.411 1.2429 122.411 1.2429C122.502 1.26562 122.547 1.35653 122.525 1.44744Z" fill="#97DAF4"/>
<path d="M121.844 4.83857C121.64 5.92948 121.412 7.02039 121.208 8.08857L120.39 12.1795C118.958 12.1568 117.412 11.7477 116.208 12.5204C115.117 13.2704 114.822 14.7249 114.503 15.9977C114.185 17.2704 113.526 18.7249 112.231 18.9749C111.276 19.1568 110.276 18.6113 109.322 18.7931C108.299 18.9977 107.594 19.9749 107.253 20.9749C106.912 21.9522 106.776 23.0431 106.299 23.9749C105.481 25.5886 103.549 26.5658 101.731 26.2704C100.072 25.9977 97.1852 23.6795 98.617 21.9977C100.503 19.7931 102.776 17.8386 104.89 15.8613C109.185 11.8613 113.662 8.06584 118.299 4.47493C118.912 3.99766 119.526 3.54312 120.14 3.08857C120.458 2.8613 120.776 2.6113 121.094 2.38403C121.276 2.24766 121.458 2.04312 121.662 1.95221C122.026 1.79312 122.117 2.22493 122.162 2.49766C122.344 3.27039 122.003 4.06584 121.844 4.83857Z" fill="#68CDED"/>
<path d="M102.023 33.0008C101.118 33.0032 100.222 32.8255 99.3869 32.4781C96.6142 31.2963 95.0005 28.6826 94.1369 26.6826C94.0233 26.4099 94.1369 26.0917 94.4324 25.9554C94.7051 25.8417 95.0233 25.9554 95.1596 26.2508C95.9324 28.069 97.3869 30.4326 99.8187 31.4781C101.773 32.319 104.66 31.9781 105.932 29.9781C106.341 29.319 106.569 28.569 106.796 27.7508C106.91 27.3645 107.023 26.9781 107.137 26.6145C107.705 25.0008 108.728 23.9099 109.932 23.6372C110.591 23.4781 111.228 23.5917 111.864 23.6826C112.455 23.7736 113.023 23.8645 113.523 23.7054C114.251 23.4554 114.796 22.6599 115.182 21.2054L115.251 20.9554C115.546 19.7963 115.887 18.4781 116.932 17.6826C117.569 17.1826 118.432 16.9554 119.387 17.0236C119.682 17.0463 119.91 17.319 119.887 17.6145C119.864 17.9099 119.591 18.1372 119.296 18.1145C118.614 18.069 118.023 18.2054 117.591 18.5463C116.841 19.1145 116.569 20.1826 116.319 21.2281L116.251 21.4781C115.932 22.6372 115.341 24.2281 113.887 24.7281C113.137 24.9781 112.41 24.8645 111.705 24.7508C111.16 24.6599 110.66 24.5917 110.182 24.6826C109.001 24.9554 108.387 26.3645 108.182 26.9554C108.069 27.2963 107.955 27.6599 107.841 28.0236C107.591 28.8645 107.341 29.7508 106.864 30.5236C105.796 32.2508 103.887 33.0008 102.023 33.0008ZM117.41 27.2508L106.682 81.2281C106.387 82.7508 104.773 83.5236 103.387 82.8645C95.0233 78.7508 86.7733 74.8417 78.7051 71.2508C81.0233 71.319 83.4324 70.1826 84.5687 68.1145C85.546 66.3872 85.6824 64.1826 87.046 62.7281C88.3869 61.2508 90.546 60.9099 92.5233 60.819C94.5233 60.7281 96.5914 60.7736 98.3414 59.819C100.955 58.4099 101.978 55.2281 102.591 52.3417C103.228 49.4554 103.819 46.2736 106.023 44.319C107.569 42.9326 109.773 42.319 111.001 40.6599C112.887 38.1372 111.796 34.4326 113.114 31.5917C113.978 29.7508 115.751 28.5463 117.341 27.2736C117.364 27.2736 117.387 27.2508 117.41 27.2508Z" fill="#68CDED"/>
<path d="M89.6399 76.8094C89.5717 76.8094 89.4808 76.7867 89.4126 76.7639C85.6854 75.0139 82.0035 73.3321 78.4808 71.7639C72.3217 68.9912 65.9808 66.2867 59.6399 63.7412C56.4354 62.4457 53.0717 61.1276 49.0263 59.6503C39.3444 56.0367 30.049 53.0139 21.4354 50.7185C20.7763 50.5367 20.299 49.9912 20.2308 49.3094C20.1626 48.6276 20.5263 47.9912 21.1626 47.6957L30.1172 43.5367C30.3899 43.4003 30.7081 43.5367 30.8444 43.8094C30.9808 44.0821 30.8444 44.4003 30.5717 44.5367L21.6172 48.6957C21.299 48.8548 21.299 49.1276 21.299 49.2185C21.299 49.3094 21.3672 49.5821 21.6854 49.673C30.3444 51.9912 39.6626 55.0139 49.3672 58.6503C53.4126 60.1503 56.799 61.4457 60.0035 62.7639C66.3445 65.3094 72.7081 68.0367 78.8899 70.8094C82.4126 72.3776 86.0945 74.0594 89.8445 75.8094C90.1172 75.9457 90.2308 76.2639 90.1172 76.5367C90.049 76.673 89.8445 76.8094 89.6399 76.8094ZM114.231 43.7412H114.117C113.977 43.7105 113.855 43.6274 113.774 43.5091C113.694 43.3907 113.662 43.246 113.685 43.1048L121.844 1.9912L96.0717 13.9912C95.799 14.1276 95.4808 13.9912 95.3444 13.7185C95.2081 13.4457 95.3445 13.1276 95.6172 12.9912L122.004 0.718469C122.254 0.650287 122.413 0.650287 122.572 0.695742L122.708 0.763923C122.844 0.832105 122.935 0.945742 123.004 1.08211C123.072 1.21847 123.094 1.4912 123.049 1.62756L114.776 43.3094C114.731 43.5594 114.504 43.7412 114.231 43.7412Z" fill="white"/>
<path d="M122.413 1.20312L100.549 23.5213L99.9581 24.1122L96.299 27.8395L95.8217 28.3395L79.8217 44.6349L79.7536 44.7031L70.4581 54.2031L69.6854 54.9986L61.1399 63.7259L54.8899 85.1804L46.1172 57.9531L56.7081 50.0668L57.6626 49.3622L74.9354 36.5213L75.0263 36.4759L77.049 34.9759L77.8899 34.3395L94.4126 22.044L95.1399 21.4986L122.39 1.20312H122.413Z" fill="#68CDED"/>
<path d="M54.8873 85.7334C54.66 85.7334 54.4327 85.5743 54.3645 85.347L52.1145 78.3243C52.0236 78.0288 52.1827 77.7334 52.4554 77.6424C52.7509 77.5515 53.0464 77.7106 53.1373 77.9834L54.8645 83.3243L60.6373 63.5743C60.66 63.4833 60.7054 63.4152 60.7736 63.347L117.296 5.66516L75.3418 36.8924C75.3191 36.8924 75.2282 36.9606 75.2282 36.9606L46.7736 58.1424L48.1827 62.5061C48.2736 62.8015 48.1145 63.097 47.8418 63.1879C47.7062 63.232 47.5586 63.2209 47.4311 63.1571C47.3035 63.0933 47.2061 62.9819 47.16 62.847L45.6373 58.1197C45.5691 57.8924 45.6373 57.6652 45.8191 57.5061L74.6373 36.0742C74.66 36.0742 74.7509 36.0061 74.7509 36.0061L94.8191 21.0515L122.046 0.756068C122.387 0.506068 122.955 0.801523 122.955 1.21061C122.955 1.34698 122.91 1.48334 122.796 1.59698L61.6373 64.0288L55.41 85.347C55.3418 85.5743 55.1373 85.7334 54.8873 85.7334Z" fill="white"/>
<path d="M100.551 23.5408L99.9601 24.1317L96.301 27.859L95.8464 28.359L79.8464 44.6544L79.7782 44.7226L70.4828 54.2226L69.7101 55.0181L66.2101 53.6999L57.1419 50.2453L56.7101 50.0862L45.1873 45.7226L39.7555 43.6772L37.9373 42.9726C36.801 42.5181 36.2555 41.2453 36.6646 40.1317L43.5282 22.0408L44.9601 18.3135L49.4146 6.51807C49.5157 6.24621 49.6695 5.99697 49.8671 5.78465C50.0647 5.57232 50.3023 5.40108 50.5662 5.28073C50.8301 5.16039 51.1152 5.09331 51.4051 5.08333C51.695 5.07336 51.984 5.12069 52.2555 5.22262L64.7555 9.97262L69.8237 11.8817L95.1419 21.4953L95.5964 21.6544L99.5282 23.1544L100.551 23.5408Z" fill="#FFCE3B"/>
<path d="M64.9103 10.9726C64.9331 12.1772 64.0921 13.4499 62.8876 13.5408C62.0921 13.609 61.2967 13.1544 60.5694 13.4726C59.8649 13.7681 59.5922 14.6317 59.4103 15.359C59.2512 16.109 59.024 16.9499 58.3421 17.3135C58.0694 17.4499 57.7967 17.4953 57.5012 17.4499C57.0467 17.4044 56.5922 17.1999 56.1831 16.9953C55.524 16.6317 54.8194 16.1772 54.0694 16.2681C53.3194 16.359 52.7058 16.9499 52.274 17.5863C51.8421 18.2226 51.5012 18.9272 50.9331 19.4272C50.0694 20.2226 48.7512 20.3817 47.6149 20.0635C46.5922 19.7681 45.7058 19.109 44.9785 18.3135L49.4331 6.51807C49.5342 6.24621 49.6879 5.99697 49.8856 5.78465C50.0832 5.57232 50.3207 5.40108 50.5847 5.28073C50.8486 5.16039 51.1336 5.09331 51.4235 5.08333C51.7134 5.07336 52.0024 5.12069 52.274 5.22262L64.774 9.97262C64.8649 10.2908 64.9103 10.6317 64.9103 10.9726Z" fill="#FAB815"/>
<path d="M49.4815 25.3452C48.8451 25.3452 48.2087 25.2543 47.6406 25.0952C45.7769 24.5497 44.2769 23.3906 43.1633 22.4361C43.0561 22.3399 42.9895 22.2066 42.9768 22.0632C42.9642 21.9197 43.0064 21.7768 43.0951 21.6633C43.2997 21.4361 43.6406 21.4133 43.8678 21.5952C44.8906 22.4588 46.2769 23.5497 47.936 24.027C49.7542 24.5497 52.2542 24.1633 53.2542 22.3679C53.4133 22.0952 53.5269 21.7997 53.6633 21.4815C54.0042 20.6633 54.3678 19.7315 55.2997 19.3224C56.6178 18.7315 58.0269 19.5952 58.7315 20.027C59.1178 20.2543 59.436 20.4133 59.7087 20.5043C60.2997 20.7315 60.7542 20.7315 61.0724 20.5497C61.7315 20.1633 61.8451 19.1179 61.936 18.1633C62.1178 16.3679 62.8906 15.2543 64.0269 15.1179C64.5951 15.0497 65.0951 15.2543 65.5269 15.4361C65.686 15.5043 65.8224 15.5724 65.9815 15.6179C67.1178 15.9815 68.5042 15.4815 69.1178 14.4815C69.5269 13.7997 69.5951 12.8679 69.2997 12.0724C69.186 11.7997 69.3451 11.4815 69.6178 11.3679C69.8906 11.277 70.2087 11.4133 70.3224 11.6861C70.7542 12.8224 70.6406 14.0724 70.0497 15.0497C69.1633 16.5043 67.2542 17.1861 65.6406 16.6633C65.4587 16.6179 65.2769 16.527 65.0951 16.4588C64.7542 16.3224 64.4133 16.1861 64.1406 16.2088C63.436 16.2997 63.0951 17.3452 63.0269 18.2088C62.9133 19.4133 62.7769 20.8452 61.6178 21.5043C61.0042 21.8679 60.2315 21.8679 59.3451 21.527C59.0042 21.4133 58.6178 21.2315 58.1633 20.9361C57.3224 20.4133 56.436 19.9815 55.7542 20.2997C55.2315 20.5497 54.9587 21.1861 54.686 21.8906C54.5497 22.2315 54.4133 22.5724 54.2315 22.8906C53.2769 24.6179 51.3451 25.3452 49.4815 25.3452ZM100.55 23.5497L99.9588 24.1406L96.2997 27.8679L95.8451 28.3679L79.8451 44.6633L79.7769 44.7315L70.4815 54.2315L69.7087 55.027L57.1406 50.2543L56.7087 50.0952L45.186 45.7315C49.2769 46.4815 54.1633 47.5724 57.5269 44.7088C58.7542 43.6633 59.7769 42.2997 61.2542 41.7088C64.6178 40.3679 68.5042 43.527 71.9815 42.3679C73.8678 41.7315 75.0724 40.0043 76.0269 38.2088C76.2315 37.8224 76.436 37.4588 76.6178 37.0724C77.0497 36.2543 77.5042 35.3906 78.0497 34.6406C78.936 33.3906 80.0497 32.3679 81.5042 32.027C83.2542 31.6406 85.2088 32.3224 86.7769 31.527C88.9815 30.4361 89.2542 27.1406 91.3678 25.8679C92.7087 25.0497 94.436 25.2997 96.0269 25.2088C97.4588 25.1406 99.1178 24.4588 99.5269 23.1633L100.55 23.5497Z" fill="#FAB815"/>
<path d="M79.8198 44.6829C77.4556 42.146 75.6787 39.1199 74.6152 35.8192C76.9789 38.3874 78.7289 41.342 79.8198 44.6829ZM65.9334 32.4102C56.569 36.2312 46.9372 39.3608 37.1152 41.7738C46.4789 37.9329 56.1152 34.8192 65.9334 32.4102Z" fill="#EEA820"/>
<path d="M50.8438 5.5625C55.7301 13.4034 62.3665 25.0625 67.0256 33.1989C68.0256 35.5398 70.5937 36.8352 73.0256 35.8352C75.5483 34.9716 78.071 34.0852 80.6165 33.267C85.6847 31.5852 90.7528 29.9034 95.8665 28.358C90.9119 30.3352 85.9119 32.1989 80.8892 34.0625C78.3892 35.017 75.8665 35.8807 73.3665 36.7898C70.6392 38.0171 67.2301 36.4489 66.0937 33.7443C60.8665 24.4261 55.6847 15.0852 50.8438 5.5625Z" fill="#EEA820"/>
<path d="M69.7081 55.5677C69.6399 55.5677 69.5717 55.5678 69.5263 55.5223L66.0263 54.2041C65.7536 54.0905 65.5945 53.7723 65.7081 53.4996C65.8217 53.2268 66.1399 53.0678 66.4126 53.1814L69.5717 54.3859L79.3899 44.3405C79.4127 44.3178 79.5036 44.2496 79.5036 44.2268L99.5945 23.7268L94.9581 21.9768L52.049 5.72684C51.636 5.57444 51.1795 5.59168 50.7792 5.77479C50.3789 5.95791 50.0674 6.29202 49.9126 6.70412L37.1854 40.3178C36.8672 41.1587 37.299 42.1359 38.1399 42.4768L39.9581 43.1814C40.2308 43.295 40.3899 43.6132 40.2763 43.8859C40.1626 44.1587 39.8445 44.3177 39.5717 44.2041L37.7536 43.4996C36.3445 42.9541 35.6399 41.3632 36.1626 39.9541L48.9126 6.34048C49.4581 4.90866 51.0036 4.20412 52.4354 4.72684L100.754 23.0678C100.913 23.1359 101.049 23.2723 101.094 23.4541C101.14 23.6359 101.072 23.8178 100.958 23.9541L96.2536 28.7723L80.2308 45.0905C80.2081 45.1132 80.1172 45.1814 80.1172 45.1814L70.0945 55.4314C69.9808 55.5223 69.8445 55.5677 69.7081 55.5677Z" fill="white"/>
<path d="M100.551 60.1075C99.5508 60.1075 98.6417 60.5847 98.0053 61.3575C97.3462 62.1302 96.9371 63.1984 96.9371 64.3575C96.9371 62.0166 95.3235 60.1075 93.3462 60.1075C94.3462 60.1075 95.2326 59.6302 95.8917 58.8575C96.5281 58.0847 96.9371 57.0166 96.9371 55.8575C96.9371 57.0393 97.3462 58.0847 98.0053 58.8575C98.6644 59.6302 99.5735 60.1075 100.551 60.1075ZM65.0053 41.7666C64.0053 41.7666 63.0962 42.2438 62.4599 43.0166C61.8008 43.7893 61.3917 44.8575 61.3917 46.0166C61.3917 43.6756 59.7781 41.7666 57.8008 41.7666C58.8008 41.7666 59.6871 41.2893 60.3462 40.5166C60.9826 39.7438 61.3917 38.6756 61.3917 37.5166C61.3917 38.6984 61.8008 39.7438 62.4599 40.5166C63.0962 41.2666 64.0053 41.7666 65.0053 41.7666ZM102.914 53.4029C102.414 53.4029 101.96 53.6529 101.619 54.0393C101.278 54.4257 101.074 54.9711 101.074 55.562C101.074 54.3575 100.255 53.4029 99.2553 53.4029C99.7553 53.4029 100.21 53.1529 100.551 52.7666C100.869 52.3802 101.074 51.8347 101.074 51.2438C101.074 51.8347 101.278 52.3802 101.619 52.7666C101.96 53.1756 102.414 53.4029 102.914 53.4029ZM82.619 20.6984C82.2553 21.6756 79.7326 21.6529 76.9599 20.6529C74.1871 19.6302 72.2326 18.0166 72.5962 17.0393C72.9599 16.062 75.4826 16.0847 78.2553 17.0847C81.0281 18.1075 82.9826 19.7211 82.619 20.6984ZM87.0508 22.312C86.8917 22.7438 86.0735 22.8347 85.2099 22.5166C84.3462 22.1984 83.7781 21.6075 83.9371 21.1756C84.0962 20.7438 84.9144 20.6529 85.7781 20.9711C86.6417 21.2893 87.2099 21.9029 87.0508 22.312ZM78.3008 53.0847C79.0962 53.7666 77.7553 56.562 75.3235 59.312C72.8917 62.062 70.3008 63.7438 69.5053 63.0393C68.7099 62.3575 70.0508 59.562 72.4826 56.812C74.9144 54.062 77.5053 52.4029 78.3008 53.0847ZM82.1871 48.6757C82.5281 48.9711 82.1871 49.9029 81.4371 50.7666C80.6871 51.6302 79.8008 52.062 79.4599 51.7666C79.119 51.4711 79.4599 50.5393 80.2099 49.6757C80.9599 48.812 81.8462 48.3575 82.1871 48.6757Z" fill="white"/>
</svg>
